<?xml version="1.0" encoding="UTF-8" standalone="no"?>
<svg
   xmlns:dc="http://purl.org/dc/elements/1.1/"
   xmlns:cc="http://creativecommons.org/ns#"
   xmlns:rdf="http://www.w3.org/1999/02/22-rdf-syntax-ns#"
   xmlns:svg="http://www.w3.org/2000/svg"
   xmlns="http://www.w3.org/2000/svg"
   viewBox="0 0 569.33331 216"
   height="216"
   width="569.33331"
   xml:space="preserve"
   id="svg2"
   version="1.1"><metadata
     id="metadata8"><rdf:RDF><cc:Work
         rdf:about=""><dc:format>image/svg+xml</dc:format><dc:type
           rdf:resource="http://purl.org/dc/dcmitype/StillImage" /></cc:Work></rdf:RDF></metadata><defs
     id="defs6"><clipPath
       id="clipPath20"
       clipPathUnits="userSpaceOnUse"><path
         id="path18"
         d="M 0,0 V 1620 H 1620 V 0 Z" /></clipPath><clipPath
       id="clipPath30"
       clipPathUnits="userSpaceOnUse"><path
         id="path28"
         d="m 1943.12,539.426 h 2326.87 v 541.152 H 1943.12 Z" /></clipPath></defs><g
     transform="matrix(1.3333333,0,0,-1.3333333,0,216)"
     id="g10"><g
       transform="scale(0.1)"
       id="g12"><g
         id="g14"><g
           clip-path="url(#clipPath20)"
           id="g16"><path
             id="path22"
             style="fill:#01044a;fill-opacity:1;fill-rule:nonzero;stroke:none"
             d="M 0.539063,1614.34 C 3.66797,1581.66 161.676,1357.23 438.082,992.789 c 17.16,-22.613 44.574,-58.758 60.871,-80.289 16.297,-21.535 30.219,-39.172 30.762,-39.172 0.644,-0.109 4.746,4.652 9.172,10.387 8.203,10.715 27.199,33.223 58.066,68.715 9.281,10.711 16.945,20.125 16.945,20.883 0,1.945 -83.539,96.627 -181.859,206.137 -260,289.78 -406.4609,440.41 -428.15228,440.41 H 0 Z m 287.523937,3.68 c -5.29,-13.75 64.214,-120.22 198.371,-303.85 51.699,-70.77 190.277,-256.89 194.812,-261.65 1.832,-1.84 3.563,-0.11 39.824,40.8 l 37.883,42.73 -44.898,50.11 c -149.91,167.18 -255.575,280.58 -332.957,357.52 -38.207,37.98 -53.75,52.48 -69.399,64.49 -14.355,11.14 -21.91,14.39 -23.636,9.85 z m 1032.767,-0.44 C 1275.82,1593.88 1031.36,1332.56 686.102,939.227 606.988,849.09 615.516,859.367 552.27,776.914 376.348,547.621 215.641,331.965 123.254,201.25 41.875,86.2227 1.94141,22.4883 0.539063,5.71875 0.109375,0.0898438 0.109375,-0.0195313 2.91406,-0.0195313 13.0586,-0.0195313 41.0117,23.6797 96.7031,79.4063 211.648,194.434 434.09,439.09 693.871,736.336 c 25.473,29.219 29.359,33.977 89.582,112.535 188.551,245.629 353.897,468.329 445.747,600.019 68.53,98.14 100.16,149.75 101.67,165.56 0.54,5.41 0.43,5.41 -2.59,5.41 -1.73,0 -5.08,-0.98 -7.45,-2.28 z m 288.17,0 C 1563.88,1593.78 1314.36,1327.04 969.523,933.816 892.137,845.625 906.602,863.371 832.883,767.176 636.238,510.832 481.578,302.422 378.504,154.719 325.188,78.543 288.816,18.1602 288.168,5.39453 c -0.215,-4.546874 0,-4.871092 2.699,-5.195311 9.606,-1.082032 33.567,19.476581 99.188,85.265581 64.433,64.6012 126.277,130.2852 233.554,248.3402 90.446,99.441 197.512,219.445 302.743,339.23 87.748,99.875 75.438,84.942 143.108,173.133 187.15,243.792 353.9,468.212 447.26,601.632 65.83,94.25 100.8,151.06 102.32,166.43 0.53,5.63 0.43,5.63 -2.59,5.63 -1.73,0 -5.07,-0.98 -7.45,-2.28 z M 1077.99,732.875 c -10.79,-13.852 -28.71,-35.059 -58.06,-68.496 -15.44,-17.422 -15.66,-17.856 -13.82,-20.02 1.08,-1.191 21.05,-23.804 44.47,-50.316 149.58,-169.563 296.58,-331.547 391.13,-431.207 103.83,-109.3985 160.81,-162.8555313 173.87,-162.8555313 3.56,0 3.67,0.1093751 3.67,4.3320313 0,21.7461 -81.48,143.0505 -247.05,367.9065 -83.86,114.051 -279.53,373.097 -282.45,374.074 -0.64,0.215 -5.93,-5.844 -11.76,-13.418 z M 902.066,531.176 c -18.347,-20.887 -35.293,-40.039 -37.558,-42.637 l -4.102,-4.758 39.18,-43.609 C 1129.9,183.719 1272.91,34.2852 1315.76,5.28516 c 5.72,-3.78907 8.95,-5.3046913 11.65,-5.3046913 3.46,0 3.67,0.2187503 3.67,3.8984413 0,22.83199 -85.37,149.75809 -256.44,381.32409 -52.66,71.309 -136.847,183.195 -138.035,183.52 -0.542,0.215 -16.082,-16.774 -34.539,-37.547" /></g></g><g
         id="g24"><g
           clip-path="url(#clipPath30)"
           id="g26"><path
             id="path32"
             style="fill:#01044a;fill-opacity:1;fill-rule:nonzero;stroke:none"
             d="m 2066.21,1000.46 c 62.08,-0.53 89.59,-23.753 89.59,-66.519 0,-44.421 -26.46,-60.054 -60.5,-70.351 v -52.535 c 79.91,15.183 131.72,57.949 131.72,127.172 0,63.363 -42.06,114.243 -150.61,114.773 l -132.77,0.52 -0.52,-52.46 h 16.72 c 22.71,0 28.63,-8.72 28.63,-35.177 V 773.172 c 0,-30.813 -10.79,-40.586 -36.2,-40.586 h -8.63 l -0.52,-52.461 168.97,-0.527 v 52.465 l -76.69,0.523 c 11.32,3.836 22.12,17.891 22.12,42.766 v 225.708 z m 281.72,-325.745 c 31.87,0 58.33,10.824 77.22,36.828 v -31.418 l 90.11,-0.527 0.53,48.179 h -30.22 v 135.289 c 0,56.219 -26.46,96.805 -110.12,96.805 -43.18,0 -84.19,-14.055 -111.7,-42.691 l 33.43,-48.703 c 18.89,19.992 44.83,33.519 70.7,33.519 38.91,0 52.92,-14.578 52.92,-51.406 v -13.004 h -33.43 c -83.66,0 -123.1,-29.762 -123.1,-82.75 0,-53.063 35.61,-80.121 83.66,-80.121 z m 19.95,49.754 c -22.64,0 -36.66,13.004 -36.66,35.176 0,22.773 16.19,36.828 51.8,36.828 h 37.78 v -37.879 c -15.14,-25.406 -31.86,-34.125 -52.92,-34.125 z M 2817,959.871 c -38.31,0 -58.32,-9.168 -79.39,-23.223 -17.24,14.055 -42.58,23.223 -74.97,23.223 -72.34,0 -112.3,-42.691 -112.3,-101.164 0,-32.469 12.45,-62.234 39.44,-80.648 -24.29,-16.235 -35.69,-32.996 -35.69,-54.114 0,-18.414 8.7,-34.648 28.11,-43.82 -24.81,-16.234 -41.6,-37.879 -41.6,-71.402 0,-43.293 34.56,-69.297 103.15,-69.297 87.94,0 165.68,41.64 165.68,108.758 0,43.816 -26.47,76.886 -110.65,76.886 h -57.2 c -20.02,0 -27.51,5.938 -27.51,16.235 0,5.937 2.09,12.929 11.31,21.047 10.28,-2.106 21.6,-3.235 33.96,-3.235 76.17,0 112.3,47.653 112.3,101.77 0,14.054 -2.69,27.582 -7.57,40.058 15.67,4.813 33.51,6.465 52.93,6.465 z M 2622.16,671.48 h 71.22 c 34.03,0 49.1,-9.769 49.1,-30.289 0,-27.054 -35.61,-45.468 -85.23,-45.468 -36.74,0 -56.16,10.82 -56.16,34.648 0,14.055 5.4,28.109 21.07,41.109 z m 38.83,140.704 c -36.13,0 -48.05,24.351 -48.05,47.046 0,23.301 11.92,47.653 48.05,47.653 36.14,0 48.06,-24.352 48.06,-47.125 0,-22.699 -11.32,-47.574 -48.06,-47.574 z m 186.22,-132.059 136.59,-0.527 c 113.87,-0.524 162.45,44.347 162.45,114.168 0,35.175 -20.02,65.992 -64.25,82.226 28.04,18.942 44.83,44.946 44.83,75.235 0,57.343 -43.18,101.243 -146.33,101.773 l -132.77,0.52 -0.52,-52.46 h 16.72 c 22.71,0 28.63,-8.72 28.63,-35.177 V 773.172 c 0,-30.813 -10.79,-40.586 -36.2,-40.586 h -8.63 z m 225.65,109.883 c 0,-40.586 -29.16,-58.473 -94.46,-57.945 l -38.91,0.523 c 11.32,3.836 22.12,17.891 22.12,42.766 v 225.708 h 12.44 c 52.93,0 79.32,-17.365 79.32,-54.115 0,-29.238 -21.6,-50.359 -63.12,-55.246 v -47.574 c 58.84,0 82.61,-21.645 82.61,-54.117 z m 271.45,70.879 52.4,-0.528 0.52,99.512 c -66.41,0 -102.55,-24.879 -121.96,-49.758 v 44.348 h -95.59 l -0.52,-47.578 h 16.19 c 21.59,0 29.16,-7.59 29.16,-34.649 v -96.355 c 0,-32.469 -8.62,-48.102 -36.73,-48.102 h -8.1 l -0.52,-47.652 149.48,-0.527 v 48.179 h -61.47 c 13.49,4.809 22.12,25.403 22.12,53.512 v 90.945 c 11.84,13.004 29.68,24.352 52.32,29.239 z m 161.92,-186.172 c 31.86,0 58.33,10.824 77.22,36.828 v -31.418 l 90.11,-0.527 0.53,48.179 h -30.22 v 135.289 c 0,56.219 -26.46,96.805 -110.12,96.805 -43.18,0 -84.19,-14.055 -111.7,-42.691 l 33.43,-48.703 c 18.9,19.992 44.83,33.519 70.77,33.519 38.83,0 52.85,-14.578 52.85,-51.406 v -13.004 h -33.43 c -83.67,0 -123.1,-29.762 -123.1,-82.75 0,-53.063 35.61,-80.121 83.66,-80.121 z m 20.02,49.754 c -22.71,0 -36.73,13.004 -36.73,35.176 0,22.773 16.19,36.828 51.8,36.828 h 37.78 v -37.879 c -15.06,-25.406 -31.86,-34.125 -52.85,-34.125 z m 285.47,236.004 c -66.34,0 -106.83,-33.598 -106.83,-86.586 0,-64.41 58.25,-74.707 98.21,-81.172 36.21,-6.012 53.45,-14.656 53.45,-34.649 0,-18.941 -17.24,-30.289 -44.83,-30.289 -35.61,0 -50.15,18.942 -57.2,43.293 l -58.25,-14.656 c 8.62,-49.758 38.84,-81.699 109.53,-81.699 71.29,0 113.35,32.996 113.35,87.109 0,52.539 -37.26,67.117 -92.81,78.469 -43.71,8.641 -58.85,16.758 -58.85,37.352 0,17.289 14.55,29.238 37.78,29.238 25.94,0 43.71,-14.055 51.28,-36.828 l 57.72,18.941 c -8.09,38.406 -36.13,71.477 -102.55,71.477 z m 212.68,27.582 c 24.29,0 39.96,15.715 39.96,38.935 0,24.88 -15.67,40.06 -39.96,40.06 -23.76,0 -38.83,-15.18 -38.83,-40.06 0,-23.22 15.07,-38.935 38.83,-38.935 z m -75.56,-307.93 143.55,-0.527 v 48.179 h -55.55 c 11.32,4.286 22.12,17.813 22.12,43.293 v 183.391 h -109.6 l -0.52,-47.578 h 18.36 c 21.59,0 26.99,-9.246 26.99,-35.176 V 768.363 c 0,-30.363 -10.8,-40.586 -36.73,-40.586 h -8.1 z m 254.8,47.652 c 11.32,4.286 22.12,17.813 22.12,43.293 v 309.51 h -109.6 l -0.53,-48.18 H 4134 c 21.59,0 26.99,-8.64 26.99,-34.65 V 768.363 c 0,-30.363 -10.8,-40.586 -36.74,-40.586 h -8.09 l -0.53,-47.652 154.36,-0.527 v 48.179" /></g></g></g></g></svg>